<?xml version="1.0" standalone="no"?>
<!DOCTYPE svg PUBLIC "-//W3C//DTD SVG 20010904//EN"
 "http://www.w3.org/TR/2001/REC-SVG-20010904/DTD/svg10.dtd">
<svg version="1.0" xmlns="http://www.w3.org/2000/svg"
 width="500.000000pt" height="500.000000pt" viewBox="0 0 500.000000 500.000000"
 preserveAspectRatio="xMidYMid meet">

<g transform="translate(0.000000,500.000000) scale(0.100000,-0.100000)"
fill="#000000" stroke="none">
<path d="M2422 4090 c-89 -31 -198 -86 -302 -154 l-65 -43 -255 -22 c-140 -12
-286 -25 -325 -28 -55 -5 -74 -11 -93 -30 -22 -22 -24 -31 -19 -86 7 -85 39
-157 70 -157 20 0 23 -4 19 -32 -3 -29 6 -43 73 -115 62 -68 82 -83 106 -83
23 0 29 -4 29 -22 0 -12 7 -30 17 -40 16 -17 -6 -18 -678 -19 l-694 -1 180
-24 c374 -48 977 -125 1145 -146 96 -11 179 -25 184 -29 6 -5 1 -48 -12 -106
-30 -138 -41 -219 -47 -368 l-7 -130 21 25 c26 33 28 25 35 -130 14 -330 160
-674 391 -918 l83 -87 24 23 c29 26 41 28 59 5 48 -57 272 -211 433 -297 124
-67 398 -176 440 -176 6 0 -15 26 -45 57 -160 165 -258 371 -276 578 l-6 79
26 -17 c14 -9 29 -17 31 -17 3 0 14 17 25 38 38 73 123 132 188 132 27 -1 28
-1 8 -16 -11 -9 -35 -22 -52 -30 -18 -8 -33 -17 -33 -20 0 -3 25 -16 56 -30
49 -21 65 -44 31 -44 -29 0 -87 -22 -82 -31 12 -19 145 -79 229 -103 46 -14
128 -30 183 -37 l99 -12 49 27 c28 15 90 60 138 101 48 40 101 76 116 80 39 8
71 45 78 91 4 26 23 58 55 97 59 72 78 107 78 148 0 24 -3 30 -16 25 -9 -3
-27 -9 -41 -12 -21 -6 -24 -4 -21 16 2 17 23 33 78 63 114 60 152 89 226 175
38 44 87 90 109 103 56 32 126 85 144 111 9 12 44 72 78 133 l61 110 -19 33
c-42 73 -132 173 -211 234 -46 36 -122 107 -169 159 -48 52 -139 135 -203 184
-110 86 -117 94 -154 170 -44 89 -60 106 -182 192 -198 139 -208 143 -423 184
-141 26 -214 49 -377 119 -96 42 -179 68 -290 94 -86 20 -169 40 -186 45 -23
6 -49 2 -112 -19z m133 -43 c130 -21 365 -89 435 -127 l35 -19 -35 0 c-19 0
-53 4 -75 9 -53 12 -70 -5 -19 -19 89 -23 177 -41 319 -66 83 -14 201 -37 264
-51 112 -25 116 -27 248 -116 202 -137 206 -142 207 -280 1 -84 16 -103 38
-50 17 38 16 37 36 18 9 -9 40 -34 67 -54 114 -84 227 -192 202 -192 -23 0
-126 46 -149 67 -20 18 -93 14 -166 -8 -65 -19 -50 -29 36 -22 70 5 83 3 127
-19 l49 -25 -65 -2 c-79 -1 -133 -11 -122 -21 4 -5 46 -11 93 -15 47 -3 87 -8
89 -11 2 -2 -2 -4 -10 -4 -27 0 -150 -43 -142 -50 4 -4 42 -2 83 6 41 7 98 13
125 13 l50 0 -65 -30 c-36 -17 -84 -34 -108 -40 -23 -5 -52 -15 -63 -22 -24
-14 -84 -115 -74 -125 7 -7 65 55 65 69 0 20 67 41 148 46 86 5 88 4 162 -34
83 -42 86 -46 140 -195 29 -78 89 -172 90 -140 0 11 30 18 30 7 0 -45 -113
-140 -208 -175 -46 -18 -71 -21 -132 -17 -89 5 -222 43 -316 89 -59 29 -71 40
-92 82 -13 26 -22 49 -20 51 4 4 356 -11 461 -19 71 -6 76 10 5 18 -119 14
-298 26 -373 26 l-80 0 25 24 25 24 90 -14 c50 -8 140 -21 200 -29 61 -9 126
-18 145 -21 26 -4 31 -2 19 5 -19 13 -186 46 -309 62 -108 13 -123 19 -111 38
19 31 91 25 221 -19 220 -73 217 -72 200 -56 -15 14 -190 86 -210 86 -5 0 -10
6 -10 13 0 26 -44 42 -120 43 -41 0 -100 4 -130 8 -64 9 -51 -9 14 -20 l40 -6
-30 -16 -29 -16 25 -6 c57 -15 -43 -22 -158 -11 -187 17 -261 20 -267 12 -2
-5 26 -11 63 -15 167 -16 262 -30 262 -38 0 -5 -19 -17 -42 -28 -35 -15 -71
-19 -187 -20 -155 -1 -329 -14 -340 -26 -3 -3 95 -4 219 -1 217 6 224 6 190
-11 -113 -55 -211 -144 -230 -209 -17 -57 -24 -230 -11 -298 28 -148 121 -276
227 -309 31 -10 58 -16 60 -13 3 2 -6 17 -19 33 -13 16 -29 40 -36 54 -11 22
-10 23 2 8 8 -10 20 -18 26 -18 7 0 -2 18 -21 39 -63 75 -100 146 -108 213 -4
35 -6 65 -3 68 6 6 38 -17 37 -27 -1 -4 -4 -17 -8 -28 -5 -16 2 -25 29 -39 33
-18 34 -21 29 -57 -6 -38 -6 -38 56 -78 35 -23 67 -41 72 -41 5 0 -1 -18 -12
-40 -11 -21 -20 -44 -20 -49 0 -14 94 -61 122 -61 13 0 33 7 44 14 26 18 66
10 62 -12 -2 -9 -19 -20 -40 -25 -23 -5 -68 -36 -125 -84 l-88 -76 -91 6 c-86
6 -234 26 -243 33 -2 2 4 13 13 23 17 19 17 21 1 48 -9 16 -32 39 -50 52 -19
12 -46 46 -61 74 -47 91 -112 165 -218 249 -57 45 -125 82 -134 73 -3 -3 31
-41 76 -84 45 -43 82 -83 82 -89 0 -6 -35 7 -77 29 -86 44 -136 50 -153 20
-10 -19 -14 -18 -103 24 -133 62 -262 103 -358 114 -79 9 -99 8 -87 -4 3 -3
38 -15 78 -26 84 -23 271 -113 340 -164 50 -36 116 -104 144 -147 14 -21 18
-55 19 -175 2 -132 5 -158 31 -238 30 -94 102 -240 143 -289 13 -16 22 -30 20
-33 -11 -10 -128 48 -196 97 -116 82 -278 222 -444 384 -75 73 -79 75 -100 61
-33 -23 -50 -18 -88 23 -97 105 -161 242 -200 432 -30 140 -36 408 -15 574 9
71 15 130 12 133 -2 2 -20 0 -40 -5 -33 -10 -36 -9 -36 11 0 29 24 117 39 146
12 22 14 22 154 16 78 -3 302 -10 497 -15 195 -5 444 -13 553 -16 112 -4 197
-2 197 3 0 4 -47 48 -105 97 -58 49 -104 90 -103 92 7 6 245 17 343 16 98 -1
114 1 152 22 24 14 51 22 63 19 26 -7 25 7 -1 41 l-20 26 -37 -29 c-20 -17
-48 -32 -62 -36 -22 -5 -28 1 -53 45 -15 28 -25 55 -23 59 3 5 22 11 43 14 21
4 50 9 66 13 26 6 27 5 17 -21 -14 -37 -7 -42 14 -10 14 21 19 23 30 13 8 -7
11 -17 8 -23 -3 -6 0 -6 9 1 8 5 30 11 49 13 19 2 44 8 55 14 19 10 19 10 0
18 -11 4 -32 8 -48 8 -36 1 -52 39 -36 88 8 25 8 46 -1 83 -16 65 -33 65 -24
0 7 -56 -6 -68 -25 -22 -6 15 -22 34 -35 42 -14 8 -50 32 -81 54 -31 21 -58
36 -61 33 -3 -3 14 -23 38 -46 l43 -40 -35 -1 c-19 0 -237 7 -485 15 -247 7
-565 17 -705 21 -140 3 -256 7 -257 9 -2 1 15 49 37 108 22 58 40 122 40 143
l0 37 -19 -24 c-10 -13 -33 -53 -50 -87 l-32 -64 -52 7 c-88 12 -228 42 -322
70 -132 40 -129 40 -161 11 -24 -21 -26 -27 -14 -35 8 -5 18 -7 22 -5 4 3 14
2 21 -3 6 -4 23 -9 37 -11 14 -1 59 -14 100 -27 41 -14 117 -36 169 -50 119
-31 128 -39 112 -100 -11 -44 -7 -104 9 -134 5 -10 19 9 45 60 20 41 38 75 40
77 1 1 94 -42 206 -97 l204 -100 -353 0 c-243 -1 -351 2 -347 9 12 20 -17 40
-56 40 -36 0 -39 2 -34 23 8 31 -16 51 -60 49 -29 -1 -42 8 -98 68 -64 67 -65
70 -54 100 15 39 1 64 -40 68 -34 3 -50 29 -60 97 -7 55 4 61 117 70 95 7 559
50 688 64 91 10 113 21 92 46 -8 10 -30 15 -64 15 l-51 0 84 47 c98 54 207 94
236 87 11 -2 29 -6 40 -7z m672 -953 c-3 -3 -12 -4 -19 -1 -8 3 -5 6 6 6 11 1
17 -2 13 -5z m1226 -150 c23 -16 76 -63 117 -105 91 -92 152 -186 74 -114 -27
25 -40 29 -105 26 l-35 -1 -13 63 c-12 61 -52 137 -71 137 -14 0 -13 -5 11
-53 20 -38 20 -41 3 -26 -11 9 -49 32 -86 51 -64 33 -66 36 -45 46 35 18 103
7 150 -24z m-658 -435 c26 -56 82 -101 173 -137 71 -28 77 -33 80 -61 5 -44
-19 -86 -113 -203 -45 -56 -79 -104 -75 -106 4 -1 48 15 99 37 79 34 91 37 91
22 0 -23 -184 -151 -217 -151 -23 0 -51 136 -69 335 l-6 70 -64 64 c-35 35
-64 66 -64 67 0 8 126 103 136 104 6 0 19 -18 29 -41z m418 -206 c26 -3 47 -9
47 -12 0 -9 -54 -59 -105 -98 -36 -27 -136 -83 -150 -83 -2 0 15 29 39 64 25
37 47 82 51 106 7 41 8 42 39 36 17 -4 52 -10 79 -13z m59 -86 c-34 -35 -127
-101 -99 -71 14 15 132 113 137 114 2 0 -15 -19 -38 -43z m-291 -311 c-32 -51
-129 -136 -155 -136 -12 0 -30 6 -39 13 -16 11 -16 14 -1 35 8 12 46 38 82 57
37 19 80 43 97 54 38 26 42 20 16 -23z m72 -6 c-9 -17 -37 -49 -61 -73 l-45
-42 54 72 c55 73 85 98 52 43z"/>
<path d="M3802 2970 c-34 -75 -27 -95 20 -60 29 21 26 16 -16 -34 -26 -31 -46
-60 -43 -63 10 -10 64 17 97 48 42 40 39 89 -9 149 l-19 24 -30 -64z"/>
<path d="M4200 2740 c0 -6 12 -15 28 -21 30 -11 96 -53 129 -83 13 -11 26 -16
30 -13 12 12 -50 68 -109 98 -61 31 -78 35 -78 19z"/>
<path d="M3953 2543 c-18 -2 -33 -8 -33 -14 0 -5 90 -9 220 -9 214 0 284 10
159 24 -65 6 -290 6 -346 -1z"/>
<path d="M3480 1789 c0 -5 12 -35 26 -66 20 -42 35 -58 60 -69 53 -22 115 -27
158 -12 48 16 59 38 20 38 -14 0 -55 5 -90 12 -56 10 -69 17 -110 60 -45 47
-64 58 -64 37z"/>
</g>
</svg>
